Simulation
nRows=28
nColumns=15
endheader
time  TH_x TH_y TH_z SC_y  SC_z  SC_x  AC_y  AC_z  AC_x  GH_y  GH_z  GH_yy  EL_x  PS_y
0.0  0.000000  0.000000  0.000000  -29.280261069748374  -1.147070255001232  12.868449364125787  56.32987368344707  -8.073900723522025  -13.565391690671206  20.384822389685233  11.795758198446633  3.7104764575647495  25.68985792874483  0.000000
0.015  0.000000  0.000000  0.000000  -29.379979672140255  -0.9559192006050197  12.926652506504114  56.263607371443584  -7.747228442486785  -13.56260940432355  19.936644221149713  12.155720354964108  4.022008653522023  25.628230294135875  0.000000
0.03  0.000000  0.000000  0.000000  -29.357477424572107  -0.7973657386115889  12.9911521424752  56.23337335216488  -7.525997109105391  -13.592815344279506  19.5301059131264  12.549354033949434  4.322664996310428  25.57422091895653  0.000000
0.045  0.000000  0.000000  0.000000  -29.39337922821215  -0.6773630120971145  13.070057297687962  56.21723388193612  -7.401210891906644  -13.617543697720988  19.22284631688291  12.996026207390543  4.5053511964299275  25.538345588717092  0.000000
0.06  0.000000  0.000000  0.000000  -29.439435649399865  -0.5773310189317847  13.162422723073494  56.1930726990607  -7.351614026442972  -13.63695308374657  19.065528873165896  13.463098599163583  4.476764137082555  25.49761068876947  0.000000
0.075  0.000000  0.000000  0.000000  -29.498478615329233  -0.49555864225919505  13.265301988513865  56.183032641030614  -7.359655411030273  -13.65554298510709  19.034140300567053  13.95723938787024  4.278853108828627  25.449842064338334  0.000000
0.09  0.000000  0.000000  0.000000  -29.55976302001098  -0.42490558587261784  13.380511647732646  56.173585244116026  -7.408730198193474  -13.671975015114434  19.087701230400555  14.467709672320103  3.9512326355117287  25.401432559517414  0.000000
0.105  0.000000  0.000000  0.000000  -29.620509122736767  -0.36324796819106336  13.505941090049397  56.1706770517659  -7.48788431360235  -13.690181673882732  19.20389992299291  14.998604889108838  3.518536560251079  25.347284309912325  0.000000
0.12  0.000000  0.000000  0.000000  -29.680391105426175  -0.31018566248801327  13.638706517014212  56.173542312009396  -7.582449386426155  -13.711412365704595  19.356522388621844  15.548892525764812  3.0098291727158006  25.29012807797483  0.000000
0.135  0.000000  0.000000  0.000000  -29.741740759312794  -0.2638129121788505  13.776411684639768  56.18078787467848  -7.683301549252536  -13.733979794487734  19.52336654650901  16.120572831804246  2.450658324396814  25.228484606479483  0.000000
0.15  0.000000  0.000000  0.000000  -29.804689453909617  -0.22319910994388678  13.917470219110305  56.193389112304715  -7.782232357306934  -13.760504079737249  19.69767856691965  16.714634005108834  1.8502026623110586  25.163340827293727  0.000000
0.16499999999999998  0.000000  0.000000  0.000000  -29.86992717282724  -0.1874232236412938  14.062859563251111  56.21000103614803  -7.875275516975451  -13.790384375209488  19.86317399499294  17.33158759520997  1.2302122756442047  25.09404802388165  0.000000
0.18  0.000000  0.000000  0.000000  -29.935510041722818  -0.15539499574685006  14.21153882044295  56.231313723270205  -7.958038285922225  -13.82536609944314  20.02045673057198  17.971090491672047  0.5919006534275018  25.021153655441935  0.000000
0.195  0.000000  0.000000  0.000000  -30.002841840019535  -0.1255971653152382  14.36496593352227  56.256606899361294  -8.03014756989897  -13.863693337660674  20.161851355269103  18.633237525225145  -0.051968502286088146  24.94478457641696  0.000000
0.21  0.000000  0.000000  0.000000  -30.070427767330123  -0.09668610103993125  14.522572458651807  56.28646804005303  -8.090756285996989  -13.905816133201153  20.292001022846524  19.317612450992495  -0.7045248279801882  24.865314262358122  0.000000
0.22499999999999998  0.000000  0.000000  0.000000  -30.13981150839071  -0.06772007065411267  14.685657595145518  56.320649569697  -8.14083352215548  -13.950167465380446  20.407866825422747  20.02397907157124  -1.3586020819608315  24.782885360463613  0.000000
0.24  0.000000  0.000000  0.000000  -30.209829279473713  -0.0377958069478857  14.853532227024127  56.359532619136814  -8.180090539801816  -13.996830774120209  20.512664199533308  20.751385686076784  -2.0153204106231675  24.698182485902915  0.000000
0.255  0.000000  0.000000  0.000000  -30.282188970459885  -0.006264324005493934  15.027109387916317  56.402958347439814  -8.209149208261962  -14.044513301246075  20.604328143751026  21.498883387739628  -2.66896088266245  24.611486854243967  0.000000
0.27  0.000000  0.000000  0.000000  -30.355952677469677  0.027411166758210592  15.205522038557167  56.45129702381457  -8.227785536883916  -14.0929769822938  20.685095759361538  22.265020778653856  -3.319563548070819  24.52287265492185  0.000000
0.285  0.000000  0.000000  0.000000  -30.432548689794313  0.06357730779691743  15.389305157567646  56.50460927876089  -8.236224915713482  -14.141194326081871  20.75374586711538  23.04822161882073  -3.9625849012082885  24.432449318766967  0.000000
0.3  0.000000  0.000000  0.000000  -30.51059969852684  0.10258610381254765  15.57735984655732  56.56309697708778  -8.234084415960904  -14.188777316626181  20.811835630883568  23.846305726595173  -4.597445922818985  24.340227905325236  0.000000
0.315  0.000000  0.000000  0.000000  -30.591038262701993  0.14467551503316994  15.76984775077696  56.626830769328144  -8.221255725538072  -14.234849605060829  20.859071240864203  24.657015134772642  -5.221100924608275  24.246167439019622  0.000000
0.32999999999999996  0.000000  0.000000  0.000000  -30.67155984477743  0.19024391618939301  15.96532190270478  56.69576471097626  -8.197244715920059  -14.279027067398756  20.896902805840266  25.47741419549878  -5.83328268508885  24.15008367157597  0.000000
0.345  0.000000  0.000000  0.000000  -30.752014117395927  0.23970703248682304  16.163727039824636  56.769440646208544  -8.161731565969095  -14.320435500686688  20.925128619798304  26.304164602363112  -6.43119529970563  24.051878911276656  0.000000
0.36  0.000000  0.000000  0.000000  -30.828760441972225  0.29379492582950884  16.36333679757539  56.847410200549305  -8.114248138044568  -14.358782342756152  20.94507890872266  27.133381872963323  -7.014984672334277  23.95095917002241  0.000000
0.375  0.000000  0.000000  0.000000  -30.902663722662716  0.3529793743236512  16.5641237852858  56.928068419573826  -8.054580647535055  -14.392333945578832  20.95744085351375  27.961221174593682  -7.583431330792885  23.847310487222096  0.000000
0.39  0.000000  0.000000  0.000000  -30.973031941818775  0.41811517895561007  16.7645161161878  57.00997742189729  -7.981836557332617  -14.418885125261383  20.964357303415646  28.784057021511682  -8.137145017802528  23.740949651459765  0.000000
0.40499999999999997  0.000000  0.000000  0.000000  -31.039768050741287  0.4902350244081394  16.964181567674945  57.09360537600327  -7.89460628610027  -14.437949458794714  20.967243339460612  29.59981119160347  -8.676669073658559  23.631464582336868  0.000000
